<?xml version="1.0" encoding="UTF-8"?><svg id="Layer_1" xmlns="http://www.w3.org/2000/svg" viewBox="0 0 2256.01 512"><defs><style>.cls-1{fill:#fff;stroke-width:0px;}</style></defs><path class="cls-1" d="M143.89,224.64c27.54,69.2,68.4,134.95,121.2,187.59-4.5,4.06-8.99,7.91-13.51,11.56-54.68-54.81-97.35-123.8-125.48-195.98-16.2-37.27-25.78-80.37-26.41-119.02,5.74,1.68,11.8,2.19,17.82,1.47,1.18,37.8,11.39,80.5,26.4,114.39h-.02Z"/><path class="cls-1" d="M264.05,38.4c-4.53,3.84-9.04,7.85-13.52,12.04C164.38-11.29,120.11,19.73,117.52,95.3c-5.99,1.12-12.15.33-17.59-2.13,3.04-90.16,64.22-127.43,164.13-54.78h-.01Z"/><path class="cls-1" d="M414.87,288.21c50.58,137.87,6.97,263.52-138.42,135.23-4.48,4.08-8.99,7.97-13.5,11.67,172.18,150.37,229-10.65,162.68-169.21-3.4,7.45-6.99,14.89-10.77,22.31h0Z"/><path class="cls-1" d="M413.4,8.78c-64.59-31.39-155.24,45.05-195.93,98.95,8.14-.79,16.39-1.41,24.73-1.86,94.2-112.7,224.69-138.37,186.23,51.6,5.77,1.84,11.41,3.8,16.87,5.85,15.1-54.69,8.81-133.91-31.89-154.54h-.01,0Z"/><path class="cls-1" d="M210.55,466.17c3.53,5.26,5.16,11.62,4.85,17.58-79.15,29.32-127.42-15.61-114.26-122.46,5.58,2.01,11.32,3.91,17.19,5.7-9.44,88.61,25.12,127.09,92.21,99.18h0Z"/><path class="cls-1" d="M441.33,179.42c-24.93,90.61-75.12,177.49-141.17,244.37-21.86,23.31-46.23,41.66-70.23,53.54-.67-5.84-2.52-11.65-5.64-17.06l-.28-.5c30.94-16.26,62.52-43.36,85.53-71.93,52.85-61.72,93.91-135.85,115.03-214.36,5.76,1.87,11.37,3.83,16.78,5.92h0l-.02.02Z"/><path class="cls-1" d="M103.37,147.33c-202.19,81.76-71.08,201.08,81.1,219.65-4.74-6.66-9.41-13.48-13.96-20.47-144.76-25.2-231.67-125.14-47.81-186.82-1.29-5.92-2.43-11.78-3.35-17.54-5.81,1.81-10.47,3.15-15.98,5.18h0Z"/><path class="cls-1" d="M361.11,143.75c-73.72-10.76-151.13-8.24-223.14,11.1-1.28-5.91-2.35-11.74-3.25-17.49,29.89-8.17,62.88-13.44,94.45-15.84,80.31-5.56,164.33,1.66,238.56,33.62,6.53,2.74,12.64,5.63,18.34,8.62-4.69,4.4-8.28,9.67-10.65,15.44-33.67-18.58-76.73-31.57-114.3-35.46h-.01Z"/><path class="cls-1" d="M540.99,212.55c26.32,50.18-6.58,99.91-78.57,128.33-1.06-5.84-2.28-11.77-3.67-17.74,94.71-42.52,92.44-95.58,29.55-136.24,1.98-6.03,5.9-11.45,11.5-15.22,16.78,10.62,31.85,24.04,41.2,40.86h-.01,0Z"/><ellipse class="cls-1" cx="276.68" cy="247.08" rx="59.16" ry="59.12"/><ellipse class="cls-1" cx="185.86" cy="482.44" rx="29.58" ry="29.56"/><ellipse class="cls-1" cx="112.09" cy="66.24" rx="29.58" ry="29.56"/><ellipse class="cls-1" cx="516.39" cy="196.15" rx="29.58" ry="29.56"/><path class="cls-1" d="M694,392.07l105.75-272.4h42.92l104.97,272.4h-44.87c-20.04-52.16-71.68-186.59-87.02-238.15l8.97-.39c-15.67,52.16-67.71,185.87-87.8,238.54h-42.92ZM740.83,324.36l15.61-40.47h124.09l17.95,40.47h-157.65Z"/><path class="cls-1" d="M1034.65,392.07V119.67h116.28c30.65-.28,59.15,16.5,74.53,42.61,24.19,38.59,9.31,94.1-31.22,115.96-25.26,18.35-88.03,9.56-117.45,11.48v102.34h-42.14ZM1076.79,249.26h78.04c23.35.56,40-20.73,39.41-43.19-1.69-61.63-77.17-43.25-117.45-45.92v89.11h0ZM1196.98,392.07l-69.46-122.97,43.31-9.73,77.26,133.08-51.12-.39h0Z"/><path class="cls-1" d="M1463.1,395.96c-125.25,1.94-189.2-151.41-100.87-238.74,52.49-53.67,155.4-54.33,202.71,6.42l-27.31,28.41c-78.94-80.89-206.39-3.93-165.45,102.15,15.31,36.16,52.49,61.18,92.09,60.9,37.54,1.02,79.85-25.7,75.31-66.54l5.85,5.45h-83.5v-41.64h120.97c14.87,75.42-42.44,145.53-119.79,143.59h0Z"/><path class="cls-1" d="M1793.21,395.96c-101.86,1.93-159-107.01-123.89-195.93,42.14-112.2,205.97-112.01,247.78.39,35.12,88.55-22.55,197.58-123.89,195.54ZM1793.21,355.1c70.95,1.65,107.54-78.36,84.09-138.73-27.57-79.37-140.52-79.44-168.37-.39-22.79,61.36,12.09,140.28,84.29,139.11h-.01Z"/><path class="cls-1" d="M2023.05,392.07V119.67h37.85l156.99,211.28s.47-140.07,0-211.08l38.12-.21v272.4h-38.63l-156.75-207.33s1.02,141.63,0,207.54l-37.57-.21h-.01Z"/></svg>