<?xml version="1.0" encoding="UTF-8"?>
<svg id="Layer_1" data-name="Layer 1" xmlns="http://www.w3.org/2000/svg" viewBox="0 0 512 512">
  <defs>
    <style>
      .cls-1 {
        fill: #8278e6;
      }

      .cls-1, .cls-2 {
        stroke-width: 0px;
      }

      .cls-2 {
        fill: #aa8cfa;
      }
    </style>
  </defs>
  <path class="cls-2" d="m144.8,240.1c23.28,58.52,57.81,114.13,102.44,158.65-3.8,3.43-7.6,6.69-11.42,9.78-46.22-46.35-82.28-104.7-106.06-165.74-13.69-31.52-21.79-67.97-22.32-100.66,4.85,1.42,9.97,1.85,15.06,1.24,1,31.97,9.63,68.08,22.31,96.74Z"/>
  <path class="cls-2" d="m246.36,82.6c-3.83,3.25-7.64,6.64-11.43,10.18-72.81-52.21-110.23-25.97-112.42,37.94-5.06.95-10.27.28-14.87-1.8,2.57-76.25,54.28-107.77,138.72-46.33Z"/>
  <path class="cls-2" d="m373.83,293.87c42.75,116.6,5.89,222.86-116.99,114.37-3.79,3.45-7.6,6.74-11.41,9.87,145.53,127.17,193.55-9.01,137.5-143.1-2.87,6.3-5.91,12.59-9.1,18.87Z"/>
  <path class="cls-2" d="m372.59,57.55c-54.59-26.55-131.21,38.1-165.6,83.68,6.88-.67,13.85-1.19,20.9-1.57,79.62-95.31,189.91-117.02,157.4,43.64,4.88,1.56,9.64,3.21,14.26,4.95,12.76-46.25,7.45-113.25-26.95-130.7Z"/>
  <path class="cls-2" d="m201.14,444.37c2.98,4.45,4.36,9.83,4.1,14.87-66.9,24.8-107.7-13.2-96.57-103.57,4.72,1.7,9.57,3.31,14.53,4.82-7.98,74.94,21.23,107.48,77.94,83.88Z"/>
  <path class="cls-2" d="m396.2,201.86c-21.07,76.63-63.49,150.11-119.32,206.67-18.48,19.71-39.07,35.23-59.36,45.28-.57-4.94-2.13-9.85-4.77-14.43l-.24-.42c26.15-13.75,52.84-36.67,72.29-60.83,44.67-52.2,79.37-114.89,97.22-181.29,4.87,1.58,9.61,3.24,14.18,5.01Z"/>
  <path class="cls-2" d="m110.55,174.72c-170.89,69.15-60.08,170.06,68.55,185.76-4.01-5.63-7.95-11.4-11.8-17.31-122.35-21.31-195.81-105.83-40.41-158-1.09-5.01-2.05-9.96-2.83-14.83-4.91,1.53-8.85,2.66-13.51,4.38Z"/>
  <path class="cls-2" d="m328.39,171.69c-62.31-9.1-127.74-6.97-188.6,9.39-1.08-5-1.99-9.93-2.75-14.79,25.26-6.91,53.15-11.37,79.83-13.4,67.88-4.7,138.89,1.4,201.63,28.43,5.52,2.32,10.68,4.76,15.5,7.29-3.96,3.72-7,8.18-9,13.06-28.46-15.71-64.85-26.7-96.61-29.99Z"/>
  <path class="cls-2" d="m480.43,229.88c22.25,42.44-5.56,84.5-66.41,108.53-.9-4.94-1.93-9.95-3.1-15,80.05-35.96,78.13-80.83,24.98-115.22,1.67-5.1,4.99-9.68,9.72-12.87,14.18,8.98,26.92,20.33,34.82,34.56Z"/>
  <circle class="cls-1" cx="257.03" cy="259.08" r="50"/>
  <circle class="cls-1" cx="180.27" cy="458.13" r="25"/>
  <circle class="cls-1" cx="117.92" cy="106.14" r="25"/>
  <circle class="cls-1" cx="459.64" cy="216.01" r="25"/>
</svg>