<?xml version="1.0" encoding="utf-8"?>
<!-- Generator: Adobe Illustrator 28.3.0, SVG Export Plug-In . SVG Version: 6.00 Build 0)  -->
<svg version="1.1" id="Layer_1" xmlns="http://www.w3.org/2000/svg" xmlns:xlink="http://www.w3.org/1999/xlink" x="0px" y="0px"
	 viewBox="0 0 512 512" style="enable-background:new 0 0 512 512;" xml:space="preserve">
<style type="text/css">
	.st0{fill:#FFFFFF;}
</style>
<path class="st0" d="M134,226.8c25.6,64.5,63.7,125.7,112.8,174.7c-4.2,3.8-8.4,7.4-12.6,10.8c-50.9-51-90.6-115.3-116.8-182.5
	c-15.1-34.7-24-74.9-24.6-110.9c5.3,1.6,11,2,16.6,1.4C110.5,155.5,120,195.2,134,226.8L134,226.8z"/>
<path class="st0" d="M245.8,53.3c-4.2,3.6-8.4,7.3-12.6,11.2C153,7,111.8,35.9,109.4,106.3c-5.6,1-11.3,0.3-16.4-2
	C95.9,20.3,152.8-14.4,245.8,53.3L245.8,53.3z"/>
<path class="st0" d="M386.2,286.1c47.1,128.4,6.5,245.6-128.9,126c-4.2,3.8-8.4,7.4-12.6,10.9c160.3,140.1,213.2-9.9,151.4-157.6
	C393.1,272.2,389.7,279.1,386.2,286.1L386.2,286.1z"/>
<path class="st0" d="M384.8,25.7c-60.1-29.2-144.5,42-182.4,92.2c7.6-0.7,15.3-1.3,23-1.7c87.7-105,209.2-128.9,173.4,48.1
	c5.4,1.7,10.6,3.5,15.7,5.5C428.6,118.7,422.7,44.9,384.8,25.7L384.8,25.7z"/>
<path class="st0" d="M196,451.9c3.3,4.9,4.8,10.8,4.5,16.4c-73.7,27.3-118.6-14.5-106.4-114.1c5.2,1.9,10.5,3.6,16,5.3
	C101.4,442,133.5,477.9,196,451.9L196,451.9z"/>
<path class="st0" d="M410.8,184.7c-23.2,84.4-69.9,165.3-131.4,227.7c-20.4,21.7-43,38.8-65.4,49.9c-0.6-5.4-2.3-10.8-5.3-15.9
	l-0.3-0.5c28.8-15.1,58.2-40.4,79.6-67c49.2-57.5,87.4-126.5,107.1-199.7C400.6,180.9,405.8,182.7,410.8,184.7L410.8,184.7z"/>
<path class="st0" d="M96.2,154.8C-92,230.9,30.1,342.2,171.7,359.5c-4.4-6.2-8.8-12.6-13-19.1C24,316.9-56.9,223.7,114.2,166.3
	c-1.2-5.5-2.3-11-3.1-16.3C105.7,151.6,101.4,152.9,96.2,154.8L96.2,154.8z"/>
<path class="st0" d="M336.2,151.4c-68.6-10-140.7-7.7-207.7,10.3c-1.2-5.5-2.2-10.9-3-16.3c27.8-7.6,58.5-12.5,87.9-14.8
	c74.8-5.2,153,1.5,222.1,31.3c6.1,2.6,11.8,5.2,17.1,8c-4.4,4.1-7.7,9-9.9,14.4C411.2,167.2,371.1,155.1,336.2,151.4L336.2,151.4z"
	/>
<path class="st0" d="M503.6,215.5c24.5,46.7-6.1,93.1-73.1,119.5c-1-5.4-2.1-11-3.4-16.5c88.2-39.6,86.1-89,27.5-126.9
	c1.8-5.6,5.5-10.7,10.7-14.2C480.9,187.4,494.9,199.9,503.6,215.5L503.6,215.5z"/>
<ellipse class="st0" cx="257.6" cy="247.7" rx="55.1" ry="55.1"/>
<ellipse class="st0" cx="173" cy="467" rx="27.5" ry="27.5"/>
<ellipse class="st0" cx="104.3" cy="79.2" rx="27.5" ry="27.5"/>
<ellipse class="st0" cx="480.7" cy="200.3" rx="27.5" ry="27.5"/>
</svg>
