<?xml version="1.0" encoding="UTF-8"?>
<svg id="Layer_1" data-name="Layer 1" xmlns="http://www.w3.org/2000/svg" viewBox="0 0 2048 512">
  <defs>
    <style>
      .cls-1 {
        fill: #fff;
        stroke-width: 0px;
      }
    </style>
  </defs>
  <g>
    <path class="cls-1" d="m185.65,229.47c23.29,58.52,57.83,114.13,102.47,158.65-3.8,3.43-7.6,6.69-11.42,9.78-46.23-46.35-82.3-104.7-106.09-165.74-13.69-31.52-21.8-67.97-22.33-100.66,4.85,1.42,9.97,1.85,15.06,1.24,1,31.97,9.63,68.08,22.32,96.74h-.01Z"/>
    <path class="cls-1" d="m287.24,71.98c-3.83,3.25-7.64,6.64-11.43,10.18-72.83-52.21-110.26-25.97-112.45,37.94-5.06.95-10.27.28-14.87-1.8,2.57-76.25,54.3-107.77,138.76-46.33h0Z"/>
    <path class="cls-1" d="m414.75,283.24c42.76,116.6,5.89,222.86-117.02,114.37-3.79,3.45-7.6,6.74-11.41,9.87,145.57,127.17,193.61-9.01,137.54-143.1-2.87,6.3-5.91,12.59-9.1,18.87h0Z"/>
    <path class="cls-1" d="m413.51,46.93c-54.61-26.55-131.25,38.1-165.65,83.68,6.88-.67,13.85-1.19,20.91-1.57,79.64-95.31,189.97-117.02,157.45,43.64,4.88,1.56,9.64,3.21,14.26,4.95,12.76-46.25,7.45-113.25-26.96-130.7h0Z"/>
    <path class="cls-1" d="m242.01,433.74c2.98,4.45,4.36,9.83,4.1,14.87-66.92,24.8-107.73-13.2-96.6-103.57,4.72,1.7,9.57,3.31,14.53,4.82-7.98,74.94,21.24,107.48,77.96,83.88h0Z"/>
    <path class="cls-1" d="m437.13,191.24c-21.08,76.63-63.51,150.11-119.35,206.67-18.49,19.71-39.08,35.23-59.38,45.28-.57-4.94-2.13-9.85-4.77-14.43l-.24-.42c26.16-13.75,52.86-36.67,72.31-60.83,44.68-52.2,79.39-114.89,97.25-181.29,4.87,1.58,9.61,3.24,14.18,5.01h0Z"/>
    <path class="cls-1" d="m151.39,164.1c-170.94,69.15-60.1,170.06,68.57,185.76-4.01-5.63-7.95-11.4-11.8-17.31-122.39-21.31-195.87-105.83-40.42-158-1.09-5.01-2.05-9.96-2.83-14.83-4.91,1.53-8.85,2.66-13.51,4.38h0Z"/>
    <path class="cls-1" d="m369.3,161.07c-62.33-9.1-127.78-6.97-188.66,9.39-1.08-5-1.99-9.93-2.75-14.79,25.27-6.91,53.17-11.37,79.85-13.4,67.9-4.7,138.93,1.4,201.69,28.43,5.52,2.32,10.68,4.76,15.5,7.29-3.96,3.72-7,8.18-9,13.06-28.47-15.71-64.87-26.7-96.64-29.99h0Z"/>
    <path class="cls-1" d="m521.38,219.25c22.26,42.44-5.56,84.5-66.43,108.53-.9-4.94-1.93-9.95-3.1-15,80.07-35.96,78.15-80.83,24.99-115.22,1.67-5.1,4.99-9.68,9.72-12.87,14.18,8.98,26.93,20.33,34.83,34.56h-.01Z"/>
    <ellipse class="cls-1" cx="297.92" cy="248.45" rx="50.01" ry="50"/>
    <ellipse class="cls-1" cx="221.13" cy="447.5" rx="25.01" ry="25"/>
    <ellipse class="cls-1" cx="158.77" cy="95.52" rx="25.01" ry="25"/>
    <ellipse class="cls-1" cx="500.59" cy="205.39" rx="25.01" ry="25"/>
  </g>
  <g>
    <path class="cls-1" d="m663.25,371.82l89.43-231h36.3l88.77,231h-37.95c-16.95-44.24-60.62-158.24-73.59-201.96l7.59-.33c-13.25,44.24-57.26,157.62-74.25,202.29h-36.3Zm39.6-57.42l13.2-34.32h104.94l15.18,34.32h-133.32Z"/>
    <path class="cls-1" d="m951.34,371.82v-231h98.34c25.92-.24,50.03,13.99,63.03,36.13,20.46,32.72,7.88,79.8-26.4,98.34-21.36,15.56-74.44,8.11-99.33,9.74v86.79h-35.64Zm35.64-121.11h66c19.75.47,33.83-17.58,33.33-36.63-1.43-52.26-65.26-36.67-99.33-38.94v75.57Zm101.64,121.11l-58.74-104.28,36.63-8.25,65.34,112.86-43.23-.33Z"/>
    <path class="cls-1" d="m1313.68,375.12c-105.92,1.64-160-128.4-85.3-202.46,44.39-45.51,131.42-46.08,171.43,5.45l-23.1,24.09c-66.76-68.6-174.54-3.33-139.92,86.63,12.95,30.66,44.39,51.89,77.88,51.64,31.74.87,67.53-21.8,63.69-56.43l4.95,4.62h-70.62v-35.31h102.3c12.57,63.96-35.89,123.42-101.31,121.77Z"/>
    <path class="cls-1" d="m1592.86,375.12c-86.14,1.64-134.47-90.74-104.77-166.16,35.64-95.15,174.19-94.99,209.55.33,29.7,75.1-19.07,167.56-104.77,165.82Zm0-34.65c60.01,1.4,90.95-66.45,71.11-117.65-23.31-67.31-118.84-67.37-142.39-.33-19.27,52.03,10.23,118.96,71.28,117.97Z"/>
    <path class="cls-1" d="m1787.22,371.82v-231h32.01l132.77,179.18s.39-118.78,0-179l32.23-.18v231h-32.67l-132.56-175.82s.86,120.11,0,176l-31.78-.18Z"/>
  </g>
</svg>